<?xml version="1.0" encoding="UTF-8" standalone="no"?>
<!DOCTYPE svg PUBLIC "-//W3C//DTD SVG 1.1//EN"
 "http://www.w3.org/Graphics/SVG/1.1/DTD/svg11.dtd">
<!-- Generated by graphviz version 2.38.0 (20140413.2041)
 -->
<!-- Title: G Pages: 1 -->
<svg width="766pt" height="301pt"
 viewBox="0.00 0.00 766.00 301.00" xmlns="http://www.w3.org/2000/svg" xmlns:xlink="http://www.w3.org/1999/xlink">
<g id="graph0" class="graph" transform="scale(1 1) rotate(0) translate(4 297)">
<title>G</title>
<polygon fill="white" stroke="none" points="-4,4 -4,-297 762,-297 762,4 -4,4"/>
<g id="clust1" class="cluster"><title>cluster_family_0</title>
</g>
<g id="clust4" class="cluster"><title>cluster_family_1</title>
</g>
<g id="clust7" class="cluster"><title>cluster_family_2</title>
</g>
<!-- union_0 -->
<g id="node1" class="node"><title>union_0</title>
<ellipse fill="#1abc9c" stroke="white" cx="501.5" cy="-204" rx="3.5" ry="3.5"/>
</g>
<!-- siblings_0 -->
<g id="node4" class="node"><title>siblings_0</title>
<polygon fill="#1abc9c" stroke="#cccccc" stroke-width="0" points="541,-204.5 534,-204.5 534,-203.5 541,-203.5 541,-204.5"/>
</g>
<!-- union_0&#45;&gt;siblings_0 -->
<g id="edge3" class="edge"><title>union_0&#45;&gt;siblings_0</title>
<path fill="none" stroke="#1abc9c" d="M505.083,-204C511.913,-204 526.732,-204 533.715,-204"/>
</g>
<!-- Homer -->
<g id="node2" class="node"><title>Homer</title>
<polygon fill="white" stroke="#cccccc" points="469,-230 289,-230 289,-188 469,-188 469,-230"/>
<text text-anchor="start" x="360.064" y="-211.4" font-family="sans-serif" font-size="14.00">Homer</text>
<text text-anchor="start" x="346.864" y="-197" font-family="sans-serif" font-size="10.00" fill="#aaaaaa">Homer Simpson</text>
</g>
<!-- Homer&#45;&gt;union_0 -->
<g id="edge1" class="edge"><title>Homer&#45;&gt;union_0</title>
<path fill="none" stroke="#1abc9c" d="M469.315,-204C481.938,-204 492.417,-204 497.733,-204"/>
</g>
<!-- Marge -->
<g id="node3" class="node"><title>Marge</title>
<polygon fill="white" stroke="#cccccc" points="469,-170 289,-170 289,-128 469,-128 469,-170"/>
<text text-anchor="start" x="361.233" y="-151.4" font-family="sans-serif" font-size="14.00">Marge</text>
<text text-anchor="start" x="320.904" y="-137" font-family="sans-serif" font-size="10.00" fill="#aaaaaa">Marjorie Jacqueline Simpson</text>
</g>
<!-- Marge&#45;&gt;union_0 -->
<g id="edge2" class="edge"><title>Marge&#45;&gt;union_0</title>
<path fill="none" stroke="#1abc9c" d="M469.038,-152.667C487.794,-152.667 502,-152.667 502,-152.667 502,-152.667 502,-188.538 502,-200.308"/>
</g>
<!-- Bart -->
<g id="node5" class="node"><title>Bart</title>
<polygon fill="white" stroke="#cccccc" points="750,-165 570,-165 570,-123 750,-123 750,-165"/>
<text text-anchor="start" x="647.949" y="-146.4" font-family="sans-serif" font-size="14.00">Bart</text>
<text text-anchor="start" x="632.639" y="-132" font-family="sans-serif" font-size="10.00" fill="#aaaaaa">Bart Simpson</text>
</g>
<!-- siblings_0&#45;&gt;Bart -->
<g id="edge4" class="edge"><title>siblings_0&#45;&gt;Bart</title>
<path fill="none" stroke="#1abc9c" d="M538,-203.285C538,-196.29 538,-140.333 538,-140.333 538,-140.333 559.736,-140.333 559.736,-140.333"/>
<polygon fill="#1abc9c" stroke="#1abc9c" points="567.736,-130.333 567.735,-150.333 563.735,-150.333 563.736,-130.333 567.736,-130.333"/>
<polyline fill="none" stroke="#1abc9c" points="569.736,-140.333 559.736,-140.333 "/>
</g>
<!-- Lisa -->
<g id="node6" class="node"><title>Lisa</title>
<polygon fill="white" stroke="#cccccc" points="750,-225 570,-225 570,-183 750,-183 750,-225"/>
<text text-anchor="start" x="647.949" y="-206.4" font-family="sans-serif" font-size="14.00">Lisa</text>
<text text-anchor="start" x="632.639" y="-192" font-family="sans-serif" font-size="10.00" fill="#aaaaaa">Lisa Simpson</text>
</g>
<!-- siblings_0&#45;&gt;Lisa -->
<g id="edge5" class="edge"><title>siblings_0&#45;&gt;Lisa</title>
<path fill="none" stroke="#1abc9c" d="M541.034,-204C541.034,-204 559.811,-204 559.811,-204"/>
<polygon fill="#1abc9c" stroke="#1abc9c" points="567.81,-194 567.811,-214 563.811,-214 563.81,-194 567.81,-194"/>
<polyline fill="none" stroke="#1abc9c" points="569.811,-204 559.811,-204 "/>
</g>
<!-- Maggie -->
<g id="node7" class="node"><title>Maggie</title>
<polygon fill="white" stroke="#cccccc" points="750,-285 570,-285 570,-243 750,-243 750,-285"/>
<text text-anchor="start" x="638.618" y="-266.4" font-family="sans-serif" font-size="14.00">Maggie</text>
<text text-anchor="start" x="625.974" y="-252" font-family="sans-serif" font-size="10.00" fill="#aaaaaa">Maggie Simpson</text>
</g>
<!-- siblings_0&#45;&gt;Maggie -->
<g id="edge6" class="edge"><title>siblings_0&#45;&gt;Maggie</title>
<path fill="none" stroke="#1abc9c" d="M538,-204.517C538,-209.57 538,-250 538,-250 538,-250 559.736,-250 559.736,-250"/>
<polygon fill="#1abc9c" stroke="#1abc9c" points="567.735,-240 567.736,-260 563.736,-260 563.735,-240 567.735,-240"/>
<polyline fill="none" stroke="#1abc9c" points="569.736,-250 559.736,-250 "/>
</g>
<!-- union_1 -->
<g id="node8" class="node"><title>union_1</title>
<ellipse fill="#2ecc71" stroke="white" cx="220.5" cy="-209" rx="3.5" ry="3.5"/>
</g>
<!-- siblings_1 -->
<g id="node11" class="node"><title>siblings_1</title>
<polygon fill="#2ecc71" stroke="#cccccc" stroke-width="0" points="260,-209.5 253,-209.5 253,-208.5 260,-208.5 260,-209.5"/>
</g>
<!-- union_1&#45;&gt;siblings_1 -->
<g id="edge9" class="edge"><title>union_1&#45;&gt;siblings_1</title>
<path fill="none" stroke="#2ecc71" d="M224.083,-209C230.913,-209 245.732,-209 252.715,-209"/>
</g>
<!-- Abe -->
<g id="node9" class="node"><title>Abe</title>
<polygon fill="white" stroke="#cccccc" points="188,-257 8,-257 8,-215 188,-215 188,-257"/>
<text text-anchor="start" x="86.3394" y="-238.4" font-family="sans-serif" font-size="14.00">Abe</text>
<text text-anchor="start" x="70.918" y="-224" font-family="sans-serif" font-size="10.00" fill="#aaaaaa">Abe Simpson</text>
</g>
<!-- Abe&#45;&gt;union_1 -->
<g id="edge7" class="edge"><title>Abe&#45;&gt;union_1</title>
<path fill="none" stroke="#2ecc71" d="M188.038,-222.5C206.794,-222.5 221,-222.5 221,-222.5 221,-222.5 221,-216.686 221,-212.689"/>
</g>
<!-- Mona -->
<g id="node10" class="node"><title>Mona</title>
<polygon fill="white" stroke="#cccccc" points="188,-197 8,-197 8,-155 188,-155 188,-197"/>
<text text-anchor="start" x="81.6704" y="-178.4" font-family="sans-serif" font-size="14.00">Mona</text>
<text text-anchor="start" x="67.583" y="-164" font-family="sans-serif" font-size="10.00" fill="#aaaaaa">Mona Simpson</text>
</g>
<!-- Mona&#45;&gt;union_1 -->
<g id="edge8" class="edge"><title>Mona&#45;&gt;union_1</title>
<path fill="none" stroke="#2ecc71" d="M188.038,-192.5C206.794,-192.5 221,-192.5 221,-192.5 221,-192.5 221,-200.657 221,-205.501"/>
</g>
<!-- siblings_1&#45;&gt;Homer -->
<g id="edge10" class="edge"><title>siblings_1&#45;&gt;Homer</title>
<path fill="none" stroke="#2ecc71" d="M260.034,-209C260.034,-209 278.811,-209 278.811,-209"/>
<polygon fill="#2ecc71" stroke="#2ecc71" points="286.81,-199 286.811,-219 282.811,-219 282.81,-199 286.81,-199"/>
<polyline fill="none" stroke="#2ecc71" points="288.811,-209 278.811,-209 "/>
</g>
<!-- union_2 -->
<g id="node12" class="node"><title>union_2</title>
<ellipse fill="#3498db" stroke="white" cx="220.5" cy="-89" rx="3.5" ry="3.5"/>
</g>
<!-- siblings_2 -->
<g id="node15" class="node"><title>siblings_2</title>
<polygon fill="#3498db" stroke="#cccccc" stroke-width="0" points="260,-89.5 253,-89.5 253,-88.5 260,-88.5 260,-89.5"/>
</g>
<!-- union_2&#45;&gt;siblings_2 -->
<g id="edge13" class="edge"><title>union_2&#45;&gt;siblings_2</title>
<path fill="none" stroke="#3498db" d="M224.083,-89C230.913,-89 245.732,-89 252.715,-89"/>
</g>
<!-- Jacqueline -->
<g id="node13" class="node"><title>Jacqueline</title>
<polygon fill="white" stroke="#cccccc" points="188,-110 8,-110 8,-68 188,-68 188,-110"/>
<text text-anchor="start" x="68.4579" y="-91.4" font-family="sans-serif" font-size="14.00">Jacqueline</text>
<text text-anchor="start" x="59.5405" y="-77" font-family="sans-serif" font-size="10.00" fill="#aaaaaa">Jacqueline Bouvier</text>
</g>
<!-- Jacqueline&#45;&gt;union_2 -->
<g id="edge11" class="edge"><title>Jacqueline&#45;&gt;union_2</title>
<path fill="none" stroke="#3498db" d="M188.315,-89C200.938,-89 211.417,-89 216.733,-89"/>
</g>
<!-- Clancy -->
<g id="node14" class="node"><title>Clancy</title>
<polygon fill="white" stroke="#cccccc" points="188,-50 8,-50 8,-8 188,-8 188,-50"/>
<text text-anchor="start" x="78.6718" y="-31.4" font-family="sans-serif" font-size="14.00">Clancy</text>
<text text-anchor="start" x="66.979" y="-17" font-family="sans-serif" font-size="10.00" fill="#aaaaaa">Clancy Bouvier</text>
</g>
<!-- Clancy&#45;&gt;union_2 -->
<g id="edge12" class="edge"><title>Clancy&#45;&gt;union_2</title>
<path fill="none" stroke="#3498db" d="M188.038,-36C206.794,-36 221,-36 221,-36 221,-36 221,-73.7314 221,-85.5225"/>
</g>
<!-- siblings_2&#45;&gt;Marge -->
<g id="edge14" class="edge"><title>siblings_2&#45;&gt;Marge</title>
<path fill="none" stroke="#3498db" d="M257,-89.5896C257,-95.3574 257,-141.5 257,-141.5 257,-141.5 278.736,-141.5 278.736,-141.5"/>
<polygon fill="#3498db" stroke="#3498db" points="286.735,-131.5 286.736,-151.5 282.736,-151.5 282.735,-131.5 286.735,-131.5"/>
<polyline fill="none" stroke="#3498db" points="288.736,-141.5 278.736,-141.5 "/>
</g>
<!-- Patty -->
<g id="node16" class="node"><title>Patty</title>
<polygon fill="white" stroke="#cccccc" points="469,-50 289,-50 289,-8 469,-8 469,-50"/>
<text text-anchor="start" x="365.111" y="-31.4" font-family="sans-serif" font-size="14.00">Patty</text>
<text text-anchor="start" x="351.864" y="-17" font-family="sans-serif" font-size="10.00" fill="#aaaaaa">Patty Bouvier</text>
</g>
<!-- siblings_2&#45;&gt;Patty -->
<g id="edge15" class="edge"><title>siblings_2&#45;&gt;Patty</title>
<path fill="none" stroke="#3498db" d="M257,-88.2476C257,-80.8867 257,-22 257,-22 257,-22 278.736,-22 278.736,-22"/>
<polygon fill="#3498db" stroke="#3498db" points="286.735,-12 286.736,-32 282.736,-32.0001 282.735,-12.0001 286.735,-12"/>
<polyline fill="none" stroke="#3498db" points="288.736,-22 278.736,-22.0001 "/>
</g>
<!-- Selma -->
<g id="node17" class="node"><title>Selma</title>
<polygon fill="white" stroke="#cccccc" points="469,-110 289,-110 289,-68 469,-68 469,-110"/>
<text text-anchor="start" x="362.003" y="-91.4" font-family="sans-serif" font-size="14.00">Selma</text>
<text text-anchor="start" x="349.644" y="-77" font-family="sans-serif" font-size="10.00" fill="#aaaaaa">Selma Bouvier</text>
</g>
<!-- siblings_2&#45;&gt;Selma -->
<g id="edge16" class="edge"><title>siblings_2&#45;&gt;Selma</title>
<path fill="none" stroke="#3498db" d="M260.034,-89C260.034,-89 278.811,-89 278.811,-89"/>
<polygon fill="#3498db" stroke="#3498db" points="286.81,-79 286.811,-99 282.811,-99.0001 282.81,-79.0001 286.81,-79"/>
<polyline fill="none" stroke="#3498db" points="288.811,-89 278.811,-89.0001 "/>
</g>
</g>
</svg>

